# xmcd CD database file
#
# Track frame offsets:
#	150
#	18305
#	44411
#	61168
#	79890
#	98768
#	119100
#	136082
#	153716
#	172095
#	194088
#	215031
#	236672
#	255731
#	277813
#
# Disc length: 4056 seconds
#
# Revision: 2
# Processed by: cddbd v1.4PL0 Copyright (c) Steve Scherf et al.
# Submitted via: CDex 1.40Release
#
DISCID=de0fd60f
DTITLE=Seiko MATSUDA - Seiko-Box Disc4
DYEAR=1900
DGENRE=
TTITLE0=Seiko-Box Disc401
TTITLE1=Seiko-Box Disc402
TTITLE2=Seiko-Box Disc403
TTITLE3=Seiko-Box Disc404
TTITLE4=Seiko-Box Disc405
TTITLE5=Seiko-Box Disc406
TTITLE6=Seiko-Box Disc407
TTITLE7=Seiko-Box Disc408
TTITLE8=Seiko-Box Disc409
TTITLE9=Seiko-Box Disc410
TTITLE10=Seiko-Box Disc411
TTITLE11=Seiko-Box Disc412
TTITLE12=Seiko-Box Disc413
TTITLE13=Seiko-Box Disc414
TTITLE14=Seiko-Box Disc415
EXTD=
EXTT0=
EXTT1=
EXTT2=
EXTT3=
EXTT4=
EXTT5=
EXTT6=
EXTT7=
EXTT8=
EXTT9=
EXTT10=
EXTT11=
EXTT12=
EXTT13=
EXTT14=
PLAYORDER=
